PathFileType	4	(X/Y/Z)	two_link_01.trc																
DataRate	CameraRate	NumFrames	NumMarkers	Units	OrigDataRate	OrigDataStartFrame	OrigNumFrames												
60	60	58	6	m	60	1895	2526												
Frame#	Time	Link2_Marker_1			Link2_Marker_2			Link2_Marker_3			Link1_Marker_1			Link1_Marker_2			Link1_Marker_3		
		X1	Y1	Z1	X2	Y2	Z2	X3	Y3	Z3	X4	Y4	Z4	X5	Y5	Z5	X6	Y6	Z6
																			
1895	0.363	0.3433987	0.35533677	0	0.3433987	0.35533677	0.1	0.30490008	0.44762901	0	0.08498044	0.24754064	0	0.08498044	0.24754064	0.1	0	0	81.95668057
1896	0.36302685	0.34340472	0.3553239	0	0.34340472	0.3553239	0.1	0.30491066	0.44761804	0	0.08498113	0.24754054	0	0.08498113	0.24754054	0.1	0	0	81.95652072
1897	0.3630537	0.34341073	0.35531103	0	0.34341073	0.35531103	0.1	0.30492124	0.44760707	0	0.08498182	0.24754045	0	0.08498182	0.24754045	0.1	0	0	81.95636144
1898	0.36318796	0.34344081	0.35524664	0	0.34344081	0.35524664	0.1	0.30497414	0.44755219	0	0.08498525	0.24753996	0	0.08498525	0.24753996	0.1	0	0	81.95556674
1899	0.36385922	0.343591	0.35492413	0	0.343591	0.35492413	0.1	0.30523866	0.44727724	0	0.08500229	0.24753755	0	0.08500229	0.24753755	0.1	0	0	81.95162365
1900	0.364	0.34362246	0.35485639	0	0.34362246	0.35485639	0.1	0.30529412	0.44721947	0	0.08500583	0.24753705	0	0.08500583	0.24753705	0.1	0	0	81.95080432
1901	0.36402478	0.34362799	0.35484447	0	0.34362799	0.35484447	0.1	0.30530388	0.44720931	0	0.08500645	0.24753696	0	0.08500645	0.24753696	0.1	0	0	81.95066051
1902	0.36405589	0.34363492	0.35482951	0	0.34363492	0.35482951	0.1	0.30531612	0.44719655	0	0.08500723	0.24753685	0	0.08500723	0.24753685	0.1	0	0	81.9504806
1903	0.36421147	0.34366958	0.35475479	0	0.34366958	0.35475479	0.1	0.30537726	0.44713281	0	0.08501113	0.2475363	0	0.08501113	0.2475363	0.1	0	0	81.94957819
1904	0.36498935	0.34384177	0.35438317	0	0.34384177	0.35438317	0.1	0.30568118	0.44681569	0	0.08503073	0.24753353	0	0.08503073	0.24753353	0.1	0	0	81.94504036
1905	0.365	0.34384412	0.3543781	0	0.34384412	0.3543781	0.1	0.30568533	0.44681136	0	0.085031	0.24753349	0	0.085031	0.24753349	0.1	0	0	81.94497791
1906	0.36502662	0.34384997	0.35436545	0	0.34384997	0.35436545	0.1	0.30569566	0.44680056	0	0.08503167	0.2475334	0	0.08503167	0.2475334	0.1	0	0	81.94482264
1907	0.36505324	0.34385582	0.3543528	0	0.34385582	0.3543528	0.1	0.305706	0.44678976	0	0.08503234	0.2475333	0	0.08503234	0.2475333	0.1	0	0	81.94466737
1908	0.36518636	0.3438851	0.35428951	0	0.3438851	0.35428951	0.1	0.30575771	0.44673572	0	0.0850357	0.24753283	0	0.0850357	0.24753283	0.1	0	0	81.94389044
1909	0.36585192	0.34403134	0.35397259	0	0.34403134	0.35397259	0.1	0.30601629	0.44646506	0	0.08505244	0.24753046	0	0.08505244	0.24753046	0.1	0	0	81.94001667
1910	0.366	0.34406384	0.35390198	0	0.34406384	0.35390198	0.1	0.30607382	0.44640473	0	0.08505615	0.24752993	0	0.08505615	0.24752993	0.1	0	0	81.9391578
1911	0.36602486	0.34406929	0.35389014	0	0.34406929	0.35389014	0.1	0.30608347	0.44639461	0	0.08505677	0.24752984	0	0.08505677	0.24752984	0.1	0	0	81.93901399
1912	0.36605552	0.34407601	0.35387553	0	0.34407601	0.35387553	0.1	0.30609537	0.44638212	0	0.08505753	0.24752973	0	0.08505753	0.24752973	0.1	0	0	81.93883695
1913	0.36620887	0.34410957	0.35380254	0	0.34410957	0.35380254	0.1	0.3061548	0.44631976	0	0.08506136	0.24752919	0	0.08506136	0.24752919	0.1	0	0	81.93795173
1914	0.36697561	0.34427623	0.35343946	0	0.34427623	0.35343946	0.1	0.30645017	0.44600938	0	0.08508048	0.24752648	0	0.08508048	0.24752648	0.1	0	0	81.9335262
1915	0.367	0.34428151	0.35342796	0	0.34428151	0.35342796	0.1	0.30645952	0.44599954	0	0.08508108	0.2475264	0	0.08508108	0.2475264	0.1	0	0	81.93338525
1916	0.3670264	0.3442872	0.35341553	0	0.3442872	0.35341553	0.1	0.30646963	0.44598891	0	0.08508174	0.2475263	0	0.08508174	0.2475263	0.1	0	0	81.93323342
1917	0.3670528	0.3442929	0.35340309	0	0.3442929	0.35340309	0.1	0.30647973	0.44597827	0	0.0850824	0.24752621	0	0.0850824	0.24752621	0.1	0	0	81.93308159
1918	0.36718479	0.34432139	0.35334088	0	0.34432139	0.35334088	0.1	0.30653028	0.44592506	0	0.08508568	0.24752575	0	0.08508568	0.24752575	0.1	0	0	81.93232242
1919	0.36784476	0.3444638	0.35302943	0	0.3444638	0.35302943	0.1	0.30678308	0.4456586	0	0.08510212	0.24752342	0	0.08510212	0.24752342	0.1	0	0	81.92851683
1920	0.368	0.34449727	0.35295609	0	0.34449727	0.35295609	0.1	0.30684255	0.44559583	0	0.08510599	0.24752287	0	0.08510599	0.24752287	0.1	0	0	81.92762073
1921	0.36802496	0.34450264	0.3529443	0	0.34450264	0.3529443	0.1	0.3068521	0.44558574	0	0.08510661	0.24752278	0	0.08510661	0.24752278	0.1	0	0	81.92747749
1922	0.3680551	0.34450913	0.35293008	0	0.34450913	0.35293008	0.1	0.30686363	0.44557357	0	0.08510736	0.24752267	0	0.08510736	0.24752267	0.1	0	0	81.92730388
1923	0.36820578	0.34454152	0.35285902	0	0.34454152	0.35285902	0.1	0.3069212	0.44551274	0	0.0851111	0.24752214	0	0.0851111	0.24752214	0.1	0	0	81.92643814
1924	0.36895916	0.34470234	0.3525054	0	0.34470234	0.3525054	0.1	0.30720738	0.44520992	0	0.08512969	0.2475195	0	0.08512969	0.2475195	0.1	0	0	81.92213408
1925	0.369	0.34471101	0.35248631	0	0.34471101	0.35248631	0.1	0.30722281	0.44519357	0	0.08513069	0.24751936	0	0.08513069	0.24751936	0.1	0	0	81.92190203
1926	0.36902618	0.34471656	0.35247408	0	0.34471656	0.35247408	0.1	0.30723269	0.44518309	0	0.08513133	0.24751927	0	0.08513133	0.24751927	0.1	0	0	81.92175364
1927	0.36905237	0.34472211	0.35246185	0	0.34472211	0.35246185	0.1	0.30724258	0.44517261	0	0.08513198	0.24751918	0	0.08513198	0.24751918	0.1	0	0	81.92160524
1928	0.36918329	0.34474985	0.35240068	0	0.34474985	0.35240068	0.1	0.30729201	0.44512021	0	0.08513519	0.24751872	0	0.08513519	0.24751872	0.1	0	0	81.92086212
1929	0.3698379	0.34488855	0.35209453	0	0.34488855	0.35209453	0.1	0.30753923	0.44485782	0	0.08515134	0.24751643	0	0.08515134	0.24751643	0.1	0	0	81.91712357
1930	0.37	0.34492288	0.35201866	0	0.34492288	0.35201866	0.1	0.30760045	0.44479277	0	0.08515536	0.24751586	0	0.08515536	0.24751586	0.1	0	0	81.91619251
1931	0.37002511	0.34492819	0.35200691	0	0.34492819	0.35200691	0.1	0.30760992	0.4447827	0	0.08515598	0.24751577	0	0.08515598	0.24751577	0.1	0	0	81.91604927
1932	0.37005021	0.3449335	0.35199517	0	0.3449335	0.35199517	0.1	0.30761939	0.44477263	0	0.0851566	0.24751568	0	0.0851566	0.24751568	0.1	0	0	81.91590546
1933	0.37017575	0.34496001	0.3519365	0	0.34496001	0.3519365	0.1	0.3076667	0.44472233	0	0.0851597	0.24751524	0	0.0851597	0.24751524	0.1	0	0	81.91518812
1934	0.37080343	0.34509177	0.35164425	0	0.34509177	0.35164425	0.1	0.30790206	0.44447165	0	0.08517506	0.24751306	0	0.08517506	0.24751306	0.1	0	0	81.91163119
1935	0.371	0.34513277	0.3515531	0	0.34513277	0.3515531	0.1	0.30797537	0.44439343	0	0.08517983	0.24751238	0	0.08517983	0.24751238	0.1	0	0	81.9105271
1936	0.37102598	0.34513817	0.35154107	0	0.34513817	0.35154107	0.1	0.30798504	0.44438311	0	0.08518046	0.24751229	0	0.08518046	0.24751229	0.1	0	0	81.91038215
1937	0.37105196	0.34514358	0.35152904	0	0.34514358	0.35152904	0.1	0.30799471	0.44437279	0	0.08518109	0.2475122	0	0.08518109	0.2475122	0.1	0	0	81.91023661
1938	0.37118185	0.3451706	0.35146889	0	0.3451706	0.35146889	0.1	0.30804306	0.44432117	0	0.08518423	0.24751176	0	0.08518423	0.24751176	0.1	0	0	81.90950953
1939	0.37183131	0.34530573	0.35116788	0	0.34530573	0.35116788	0.1	0.30828489	0.44406275	0	0.0852001	0.2475095	0	0.0852001	0.2475095	0.1	0	0	81.90583573
1940	0.372	0.34534082	0.35108964	0	0.34534082	0.35108964	0.1	0.30834771	0.44399555	0	0.08520426	0.24750891	0	0.08520426	0.24750891	0.1	0	0	81.90487258
1941	0.3720277	0.34534658	0.3510768	0	0.34534658	0.3510768	0.1	0.30835801	0.44398453	0	0.08520494	0.24750881	0	0.08520494	0.24750881	0.1	0	0	81.90471502
1942	0.37205539	0.34535233	0.35106397	0	0.34535233	0.35106397	0.1	0.30836831	0.44397351	0	0.08520562	0.24750872	0	0.08520562	0.24750872	0.1	0	0	81.90455746
1943	0.37219387	0.34538104	0.35099986	0	0.34538104	0.35099986	0.1	0.30841974	0.44391844	0	0.08520901	0.24750823	0	0.08520901	0.24750823	0.1	0	0	81.90377193
1944	0.37288625	0.34552364	0.35068056	0	0.34552364	0.35068056	0.1	0.30867553	0.44364408	0	0.08522578	0.24750585	0	0.08522578	0.24750585	0.1	0	0	81.89989129
1945	0.373	0.34554692	0.3506283	0	0.34554692	0.3506283	0.1	0.30871734	0.44359916	0	0.0852285	0.24750546	0	0.0852285	0.24750546	0.1	0	0	81.89926161
1946	0.37302576	0.34555218	0.35061647	0	0.34555218	0.35061647	0.1	0.30872679	0.443589	0	0.08522911	0.24750537	0	0.08522911	0.24750537	0.1	0	0	81.89911951
1947	0.37305152	0.34555744	0.35060465	0	0.34555744	0.35060465	0.1	0.30873624	0.44357884	0	0.08522973	0.24750529	0	0.08522973	0.24750529	0.1	0	0	81.89897742
1948	0.37318032	0.34558375	0.35054553	0	0.34558375	0.35054553	0.1	0.30878351	0.44352801	0	0.0852328	0.24750485	0	0.0852328	0.24750485	0.1	0	0	81.89826581
1949	0.37382432	0.34571533	0.35024974	0	0.34571533	0.35024974	0.1	0.30901994	0.44327365	0	0.08524838	0.24750263	0	0.08524838	0.24750263	0.1	0	0	81.89465846
1950	0.374	0.34575122	0.35016901	0	0.34575122	0.35016901	0.1	0.30908444	0.4432042	0	0.08525269	0.24750202	0	0.08525269	0.24750202	0.1	0	0	81.89366209
1951	0.37402731	0.3457568	0.35015647	0	0.3457568	0.35015647	0.1	0.30909446	0.44319341	0	0.08525335	0.24750192	0	0.08525335	0.24750192	0.1	0	0	81.89350739
1952	0.37405462	0.34576237	0.35014393	0	0.34576237	0.35014393	0.1	0.30910447	0.44318263	0	0.08525402	0.24750183	0	0.08525402	0.24750183	0.1	0	0	81.89335269
